<?xml version="1.0" encoding="UTF-8"?>
<svg version="1.1" viewBox="0 0 399.28 88.13" xml:space="preserve" xmlns="http://www.w3.org/2000/svg" xmlns:cc="http://creativecommons.org/ns#" xmlns:dc="http://purl.org/dc/elements/1.1/" xmlns:rdf="http://www.w3.org/1999/02/22-rdf-syntax-ns#"><metadata><rdf:RDF><cc:Work rdf:about=""><dc:format>image/svg+xml</dc:format><dc:type rdf:resource="http://purl.org/dc/dcmitype/StillImage"/><dc:title/></cc:Work></rdf:RDF></metadata>
<style type="text/css">
	.st0{fill-rule:evenodd;clip-rule:evenodd;fill:#9EA3B0;}
	.st1{fill-rule:evenodd;clip-rule:evenodd;fill:#165C32;}
	.st2{fill:none;stroke:#165C32;stroke-width:0.5;stroke-miterlimit:22.9256;}
	.st3{fill-rule:evenodd;clip-rule:evenodd;fill:#218E4D;}
	.st4{fill-rule:evenodd;clip-rule:evenodd;fill:#171716;}
	.st5{fill:#9EA3B0;}
</style>
<path class="st0" d="m228.01 37.69v-36.3h5.13v31.63h17.27v4.67zm-44.68-18.3c0-2.42 0.5-4.77 1.48-7.05s2.39-4.3 4.21-6.05c1.85-1.78 3.94-3.13 6.28-4.07 2.33-0.93 4.79-1.4 7.37-1.4 2.62 0 5.12 0.47 7.48 1.42 2.36 0.94 4.44 2.29 6.23 4.05 1.89 1.83 3.3 3.88 4.26 6.12 0.95 2.25 1.43 4.69 1.43 7.32 0 2.47-0.49 4.84-1.47 7.12-0.97 2.28-2.36 4.28-4.16 6-1.89 1.8-3.98 3.16-6.31 4.08-2.33 0.93-4.82 1.39-7.45 1.39-2.58 0-5.05-0.48-7.41-1.43-2.36-0.96-4.44-2.3-6.23-4.05-1.87-1.82-3.29-3.87-4.24-6.14-0.99-2.27-1.47-4.71-1.47-7.31zm5.52 0.19c0 1.85 0.35 3.61 1.04 5.29s1.69 3.17 2.98 4.46c1.27 1.3 2.74 2.29 4.45 2.99 1.7 0.7 3.48 1.05 5.33 1.05 1.9 0 3.68-0.35 5.36-1.03 1.67-0.68 3.16-1.69 4.47-3.02 1.29-1.29 2.29-2.78 2.99-4.46 0.7-1.67 1.05-3.44 1.05-5.29s-0.34-3.6-1.04-5.25c-0.69-1.66-1.72-3.16-3.06-4.52-1.29-1.34-2.78-2.35-4.46-3.05-1.67-0.7-3.44-1.05-5.31-1.05-1.81 0-3.54 0.35-5.23 1.06-1.68 0.71-3.2 1.72-4.55 3.04-1.29 1.26-2.29 2.74-2.98 4.44-0.69 1.69-1.04 3.47-1.04 5.34zm-28.42-2.46h4.3c2.42 0 4.23-0.47 5.44-1.4 1.2-0.94 1.8-2.36 1.8-4.29 0-1.97-0.57-3.4-1.71-4.29s-2.98-1.34-5.52-1.34h-4.3v11.32zm-5.22 20.57v-36.3h10.63c3.67 0 6.49 0.87 8.48 2.59 1.99 1.73 2.98 4.18 2.98 7.34 0 2.39-0.55 4.31-1.64 5.76s-2.81 2.54-5.16 3.27c0.6 0.33 1.18 0.76 1.71 1.31 0.54 0.55 1.23 1.46 2.08 2.74l8.82 13.28h-6.28l-6.22-9.52c-1.87-2.87-3.37-4.7-4.52-5.5s-2.52-1.2-4.11-1.2h-1.56v16.21h-5.21zm-22.68 0v-31.58h-13.33v-4.72h31.83v4.72h-13.33v31.57h-5.17zm-51.14 0v-36.3h4.52l23.89 28.17v-28.17h5.16v36.29h-4.61l-23.82-28.2v28.2h-5.14zm-44.52-18.3c0-2.42 0.5-4.77 1.48-7.05s2.39-4.3 4.21-6.05c1.85-1.78 3.94-3.13 6.28-4.07 2.33-0.93 4.79-1.4 7.37-1.4 2.62 0 5.12 0.47 7.48 1.42 2.36 0.94 4.44 2.29 6.23 4.05 1.89 1.83 3.3 3.88 4.26 6.12 0.95 2.25 1.43 4.69 1.43 7.32 0 2.47-0.49 4.84-1.47 7.12-0.97 2.28-2.36 4.28-4.16 6-1.89 1.8-3.98 3.16-6.31 4.08-2.33 0.93-4.82 1.39-7.45 1.39-2.58 0-5.05-0.48-7.41-1.43-2.35-0.96-4.44-2.3-6.23-4.05-1.87-1.82-3.28-3.87-4.24-6.14-0.99-2.27-1.47-4.71-1.47-7.31zm5.53 0.19c0 1.85 0.34 3.61 1.04 5.29 0.69 1.68 1.69 3.17 2.98 4.46 1.27 1.3 2.74 2.29 4.45 2.99 1.7 0.7 3.48 1.05 5.33 1.05 1.89 0 3.68-0.35 5.36-1.03 1.66-0.68 3.16-1.69 4.47-3.02 1.29-1.29 2.29-2.78 2.99-4.46 0.7-1.67 1.05-3.44 1.05-5.29s-0.35-3.6-1.04-5.25c-0.69-1.66-1.72-3.16-3.06-4.52-1.29-1.34-2.78-2.35-4.46-3.05-1.67-0.7-3.44-1.05-5.31-1.05-1.81 0-3.54 0.35-5.23 1.06-1.68 0.71-3.2 1.72-4.55 3.04-1.29 1.26-2.29 2.74-2.98 4.44-0.7 1.69-1.04 3.47-1.04 5.34zm-9.53 9.49v5.86c-2.12 1.11-4.29 1.95-6.5 2.53-2.2 0.57-4.39 0.87-6.55 0.87-2.07 0-4.06-0.27-5.94-0.81-1.88-0.55-3.67-1.35-5.34-2.43-2.7-1.76-4.8-4.02-6.3-6.76-1.5-2.75-2.24-5.72-2.24-8.94 0-2.44 0.5-4.8 1.48-7.09 0.98-2.28 2.39-4.29 4.21-6 1.93-1.83 4.11-3.2 6.51-4.11 2.41-0.91 5.06-1.36 7.99-1.36 2.05 0 4.06 0.23 6.07 0.7s4.11 1.2 6.3 2.2v5.63c-2.3-1.25-4.46-2.17-6.48-2.76-2.03-0.59-3.99-0.89-5.9-0.89-4.23 0-7.74 1.32-10.5 3.96-2.77 2.63-4.15 5.94-4.15 9.92 0 3.92 1.36 7.21 4.08 9.84 2.73 2.64 6.14 3.96 10.26 3.96 2.11 0 4.25-0.35 6.41-1.06 2.16-0.73 4.36-1.81 6.59-3.26z"/>
<path class="st1" d="m356.99 0.83h7.26v16.08l13.56-16.08h8.33l-15.2 17.1 16.63 19.76h-9.18l-14.14-17.64v17.64h-7.26zm-5.91 1.17-0.47 5.83c-0.14-0.05-0.32-0.12-0.55-0.2-3.42-1.28-6.09-1.92-8.01-1.92-4.05 0-7.28 1.26-9.7 3.76-2.42 2.51-3.63 5.84-3.63 10 0 3.95 1.25 7.14 3.74 9.6 2.51 2.45 5.8 3.68 9.9 3.68 1.37 0 3.43-0.48 6.18-1.43 0.97-0.33 1.69-0.56 2.18-0.7l0.62 5.83c-0.45 0.12-1.12 0.3-2 0.55-3.34 0.95-5.87 1.43-7.6 1.43-6.35 0-11.36-1.7-15.02-5.11-3.67-3.41-5.5-8.02-5.5-13.86 0-5.83 1.84-10.53 5.52-14.1 3.67-3.57 8.54-5.36 14.62-5.36 1.89 0 4.44 0.47 7.65 1.4 0.95 0.29 1.64 0.47 2.07 0.6zm-54.44-1.17h8.77l14.25 36.86h-7.84l-3.06-8.72h-16.05l-3.2 8.72h-7.21zm4.26 6.14-6.18 16.57h12.12zm-41.18-6.14h10.94c4.77 0 8.31 0.94 10.61 2.82s3.45 4.75 3.45 8.65c0 3.59-1.2 6.39-3.6 8.38-2.41 1.99-5.81 2.98-10.2 2.98h-3.94v14.03h-7.26zm7.26 5.19v12.45h2.98c2.36 0 4.19-0.53 5.44-1.59 1.27-1.06 1.89-2.59 1.89-4.58 0-2.01-0.6-3.55-1.81-4.64-1.2-1.09-2.9-1.64-5.12-1.64z"/>

<path class="st2" d="m394.8 5.41c0-0.44-0.14-0.76-0.43-0.94-0.2-0.12-0.46-0.18-0.78-0.18h-2.26v2.28h2.1c0.41 0 0.72-0.07 0.94-0.21 0.28-0.18 0.43-0.5 0.43-0.95zm1.19 4.82h-1.11c-0.04-0.13-0.07-0.25-0.09-0.37s-0.03-0.25-0.03-0.42l-0.04-0.9c0-0.35-0.06-0.62-0.19-0.8-0.19-0.26-0.52-0.39-1.01-0.39h-2.2v2.88h-0.91v-6.72h3.11c0.64 0 1.14 0.12 1.51 0.37 0.46 0.3 0.69 0.78 0.69 1.44 0 0.44-0.1 0.8-0.3 1.08-0.14 0.19-0.35 0.37-0.64 0.53 0.26 0.1 0.44 0.21 0.54 0.34 0.17 0.21 0.26 0.51 0.26 0.93l0.06 1.22c0 0.19 0.02 0.32 0.06 0.41s0.13 0.17 0.28 0.26v0.14z" fill="#165c32" stroke-miterlimit="22.926" stroke-width=".1"/>

<path class="st2" d="m392.99 1.34c3.04 0 5.52 2.48 5.52 5.52s-2.48 5.52-5.52 5.52-5.52-2.48-5.52-5.52c-0.01-3.03 2.47-5.51 5.52-5.52zm0-0.51c3.33 0 6.04 2.71 6.04 6.04s-2.71 6.04-6.04 6.04-6.04-2.71-6.04-6.04c-0.01-3.33 2.71-6.04 6.04-6.04z" fill="none" stroke-miterlimit="22.926" stroke-width=".53"/>
<path class="st4" d="m380.69 52.16v-5.78h1.02l1.77 4.85 1.75-4.85h1.01v5.78h-0.68v-5.14l-1.9 5.14h-0.49l-1.88-5.18v5.18zm-13.73 0v-5.78h3.67v0.57h-2.97v1.88h2.34v0.56h-2.34v2.18h3.05v0.6h-3.75zm-11.42-5.18v5.18h-0.72v-5.18h-1.62v-0.6h3.96v0.6zm-16.31 3.6 0.69-0.13c0.12 0.39 0.32 0.7 0.6 0.91 0.29 0.21 0.63 0.32 1.05 0.32 0.39 0 0.72-0.1 0.98-0.29s0.39-0.43 0.39-0.71c0-0.29-0.09-0.51-0.27-0.67s-0.58-0.32-1.18-0.48c-0.05-0.01-0.13-0.03-0.22-0.05-0.62-0.15-1.06-0.35-1.33-0.6-0.13-0.12-0.24-0.27-0.31-0.43-0.07-0.17-0.11-0.34-0.11-0.52 0-0.49 0.18-0.89 0.54-1.2s0.82-0.47 1.39-0.47c0.53 0 0.98 0.12 1.34 0.37s0.62 0.61 0.77 1.09l-0.67 0.16c-0.1-0.33-0.27-0.58-0.52-0.75-0.25-0.18-0.55-0.26-0.92-0.26-0.36 0-0.65 0.09-0.87 0.27s-0.33 0.41-0.33 0.69c0 0.13 0.03 0.25 0.09 0.36s0.14 0.2 0.24 0.27c0.2 0.13 0.52 0.25 0.98 0.37 0.12 0.03 0.21 0.05 0.26 0.07 0.7 0.2 1.19 0.43 1.46 0.69s0.4 0.6 0.4 1.03c0 0.5-0.19 0.9-0.58 1.21-0.38 0.31-0.89 0.46-1.52 0.46-0.6 0-1.11-0.14-1.51-0.43-0.39-0.31-0.68-0.73-0.84-1.28zm-11.88 1.58v-2.44l-1.96-3.34h0.76l1.59 2.78 1.58-2.78h0.68l-1.97 3.37v2.42h-0.68zm-15.84-1.58 0.69-0.13c0.12 0.39 0.32 0.7 0.6 0.91s0.63 0.32 1.05 0.32c0.39 0 0.72-0.1 0.98-0.29s0.39-0.43 0.39-0.71c0-0.29-0.09-0.51-0.27-0.67s-0.58-0.32-1.19-0.48c-0.05-0.01-0.13-0.03-0.22-0.05-0.62-0.15-1.06-0.35-1.33-0.6-0.13-0.12-0.24-0.27-0.31-0.43-0.07-0.17-0.11-0.34-0.11-0.52 0-0.49 0.18-0.89 0.54-1.2s0.82-0.47 1.39-0.47c0.53 0 0.98 0.12 1.34 0.37s0.62 0.61 0.77 1.09l-0.68 0.16c-0.1-0.33-0.27-0.58-0.52-0.75-0.25-0.18-0.55-0.26-0.92-0.26-0.36 0-0.65 0.09-0.87 0.27s-0.33 0.41-0.33 0.69c0 0.13 0.03 0.25 0.09 0.36s0.14 0.2 0.24 0.27c0.2 0.13 0.52 0.25 0.99 0.37 0.12 0.03 0.21 0.05 0.27 0.07 0.7 0.2 1.19 0.43 1.46 0.69s0.4 0.6 0.4 1.03c0 0.5-0.19 0.9-0.58 1.21-0.38 0.31-0.89 0.46-1.52 0.46-0.6 0-1.11-0.14-1.51-0.43-0.39-0.31-0.68-0.73-0.84-1.28zm-28.99 1.58v-5.78h3.67v0.57h-2.97v1.88h2.34v0.56h-2.34v2.18h3.05v0.6h-3.75zm-12.29-5.19h-1.28v2.08h1.23c0.48 0 0.83-0.09 1.07-0.26 0.23-0.17 0.35-0.43 0.35-0.79 0-0.33-0.12-0.59-0.35-0.77-0.25-0.17-0.59-0.26-1.02-0.26zm-1.98 5.19v-5.78h2c0.69 0 1.21 0.14 1.57 0.41 0.35 0.28 0.53 0.68 0.53 1.22 0 0.35-0.09 0.65-0.27 0.9s-0.45 0.44-0.8 0.58l1.17 2.67h-0.71l-1.11-2.54h-1.67v2.54zm-14.45-5.78h0.71v3.68c0 0.56 0.1 0.97 0.31 1.23s0.53 0.39 0.97 0.39c0.46 0 0.8-0.13 1.02-0.38 0.21-0.26 0.32-0.67 0.32-1.23v-3.68h0.59v3.68c0 0.75-0.16 1.31-0.49 1.68-0.32 0.37-0.82 0.55-1.5 0.55-0.66 0-1.15-0.18-1.46-0.54s-0.47-0.92-0.47-1.68zm-11.43 0.6v5.18h-0.72v-5.18h-1.62v-0.6h3.97v0.6zm-12.37 1.27c-0.09-0.45-0.26-0.8-0.51-1.04s-0.56-0.36-0.93-0.36c-0.49 0-0.88 0.22-1.17 0.65s-0.43 1.02-0.43 1.76c0 0.75 0.14 1.34 0.43 1.77s0.68 0.64 1.18 0.64c0.37 0 0.68-0.12 0.93-0.36s0.43-0.59 0.54-1.06l0.64 0.14c-0.14 0.62-0.39 1.08-0.75 1.4s-0.81 0.48-1.37 0.48c-0.73 0-1.31-0.27-1.73-0.81s-0.64-1.27-0.64-2.21c0-0.49 0.06-0.92 0.2-1.31 0.13-0.39 0.33-0.72 0.59-1.01 0.21-0.22 0.45-0.39 0.72-0.51s0.56-0.17 0.87-0.17c0.55 0 1 0.16 1.36 0.47 0.35 0.31 0.6 0.78 0.74 1.39zm-16.62 1.63h1.82l-0.92-2.84zm-1.38 2.28 1.92-5.78h0.83l1.89 5.78h-0.7l-0.56-1.73h-2.18l-0.53 1.73zm-12.4 0v-5.78h3.67v0.57h-2.98v1.88h2.34v0.56h-2.34v2.78h-0.69zm-14.45-5.78h0.71v3.68c0 0.56 0.1 0.97 0.31 1.23s0.53 0.39 0.97 0.39c0.46 0 0.8-0.13 1.02-0.38 0.21-0.26 0.32-0.67 0.32-1.23v-3.68h0.59v3.68c0 0.75-0.16 1.31-0.49 1.68-0.32 0.37-0.82 0.55-1.5 0.55-0.66 0-1.15-0.18-1.46-0.54s-0.47-0.92-0.47-1.68zm-14.78 5.78v-5.78h0.93l2.73 4.77v-4.77h0.58v5.78h-0.71l-2.96-5.15v5.15zm-13.17-2.28h1.82l-0.92-2.84zm-1.37 2.28 1.92-5.78h0.83l1.89 5.78h-0.7l-0.56-1.73h-2.18l-0.53 1.73zm-15.42 0v-5.78h1.02l1.77 4.85 1.75-4.85h1.01v5.78h-0.68v-5.14l-1.9 5.14h-0.49l-1.88-5.18v5.18zm-26.45 0.06-0.2-0.69c-0.16 0.24-0.38 0.42-0.65 0.55s-0.58 0.19-0.93 0.19c-0.73 0-1.31-0.27-1.74-0.81-0.42-0.54-0.64-1.28-0.64-2.21 0-0.48 0.07-0.92 0.2-1.3 0.13-0.39 0.33-0.72 0.59-1 0.2-0.22 0.44-0.39 0.72-0.51 0.27-0.12 0.56-0.18 0.87-0.18 0.54 0 1 0.14 1.37 0.43s0.64 0.7 0.8 1.25l-0.67 0.17c-0.13-0.41-0.32-0.72-0.58-0.93-0.25-0.21-0.56-0.32-0.92-0.32-0.49 0-0.88 0.22-1.17 0.64-0.29 0.43-0.44 1.02-0.44 1.76 0 0.77 0.15 1.36 0.44 1.78s0.7 0.63 1.23 0.63c0.44 0 0.79-0.13 1.06-0.39s0.4-0.6 0.4-1.03v-0.38h-1.48v-0.6h2.19v2.96h-0.45zm-18.58-0.06v-5.78h0.93l2.73 4.77v-4.77h0.58v5.78h-0.71l-2.96-5.15v5.15zm-11.28 0v-5.78h0.72v5.78zm-10.77 0.06-0.2-0.69c-0.16 0.24-0.38 0.42-0.65 0.55s-0.58 0.19-0.93 0.19c-0.74 0-1.31-0.27-1.74-0.81-0.42-0.54-0.63-1.28-0.63-2.21 0-0.48 0.07-0.92 0.2-1.3 0.13-0.39 0.33-0.72 0.59-1 0.2-0.22 0.44-0.39 0.72-0.51 0.27-0.12 0.56-0.18 0.87-0.18 0.54 0 1 0.14 1.37 0.43s0.64 0.7 0.8 1.25l-0.68 0.17c-0.13-0.41-0.32-0.72-0.58-0.93-0.25-0.21-0.56-0.32-0.92-0.32-0.49 0-0.88 0.22-1.17 0.64-0.29 0.43-0.44 1.02-0.44 1.76 0 0.77 0.15 1.36 0.44 1.78s0.7 0.63 1.23 0.63c0.44 0 0.79-0.13 1.06-0.39s0.4-0.6 0.4-1.03v-0.38h-1.49v-0.6h2.19v2.96h-0.44zm-16.97-2.34h1.82l-0.92-2.84zm-1.38 2.28 1.92-5.78h0.83l1.89 5.78h-0.7l-0.56-1.73h-2.18l-0.53 1.73zm-13.47 0v-5.78h0.69v3.31l2.6-3.31h0.75l-1.53 1.93 2.02 3.85h-0.73l-1.75-3.36-1.36 1.7v1.66zm-10.77-3.91c-0.09-0.45-0.26-0.8-0.51-1.04s-0.56-0.36-0.93-0.36c-0.49 0-0.89 0.22-1.17 0.65-0.29 0.43-0.43 1.02-0.43 1.76 0 0.75 0.14 1.34 0.43 1.77s0.68 0.64 1.18 0.64c0.37 0 0.68-0.12 0.93-0.36s0.43-0.59 0.54-1.06l0.64 0.14c-0.14 0.62-0.39 1.08-0.75 1.4s-0.81 0.48-1.37 0.48c-0.73 0-1.31-0.27-1.74-0.81-0.42-0.54-0.64-1.27-0.64-2.21 0-0.49 0.07-0.92 0.2-1.31s0.33-0.72 0.59-1.01c0.21-0.22 0.45-0.39 0.72-0.51s0.56-0.17 0.87-0.17c0.55 0 1 0.16 1.36 0.47 0.35 0.31 0.6 0.78 0.74 1.39zm-16.62 1.63h1.82l-0.92-2.84zm-1.38 2.28 1.92-5.78h0.83l1.89 5.78h-0.7l-0.56-1.73h-2.18l-0.53 1.73zm-12.66 0v-5.78h1.94c0.64 0 1.13 0.15 1.47 0.46 0.34 0.3 0.51 0.74 0.51 1.32 0 0.5-0.18 0.91-0.55 1.21-0.36 0.3-0.85 0.46-1.46 0.46h-1.22v2.34h-0.69zm0.69-2.94h1.14c0.43 0 0.76-0.1 0.98-0.29 0.22-0.2 0.33-0.48 0.33-0.86 0-0.33-0.11-0.6-0.34-0.8s-0.53-0.3-0.92-0.3h-1.19z" fill="#9ea3b0"/>

<path class="st0" d="m346.76 70.91c0.55-0.96 1.26-1.69 2.11-2.19 0.85-0.51 1.8-0.76 2.83-0.76 1.66 0 2.93 0.53 3.81 1.59s1.32 2.6 1.32 4.61v8.25h-4.77v-7.25c0-1.1-0.18-1.91-0.54-2.42-0.36-0.52-0.92-0.78-1.68-0.78-0.78 0-1.4 0.33-1.86 0.99s-0.7 1.55-0.7 2.68v6.77h-4.8v-7.25c0-1.1-0.18-1.91-0.53-2.42-0.36-0.52-0.92-0.78-1.69-0.78-0.78 0-1.4 0.33-1.87 1s-0.7 1.56-0.7 2.67v6.77h-4.78v-14.1h4.34v2.53c0.54-0.93 1.23-1.64 2.08-2.13 0.85-0.5 1.78-0.74 2.8-0.74 1.08 0 2.02 0.26 2.82 0.76 0.8 0.51 1.4 1.24 1.81 2.2m-24.83-2.99c2.54 0 4.53 0.66 5.97 1.97 1.43 1.31 2.15 3.13 2.15 5.46 0 2.31-0.72 4.12-2.15 5.44-1.44 1.31-3.42 1.97-5.97 1.97-2.54 0-4.52-0.66-5.95-1.97s-2.14-3.12-2.14-5.44c0-2.33 0.71-4.15 2.14-5.46 1.42-1.31 3.41-1.97 5.95-1.97zm0 3.38c-0.91 0-1.65 0.37-2.22 1.11s-0.85 1.71-0.85 2.93c0 1.2 0.28 2.16 0.85 2.9s1.31 1.11 2.22 1.11c0.93 0 1.67-0.37 2.23-1.09 0.56-0.73 0.84-1.7 0.84-2.91 0-1.23-0.28-2.2-0.84-2.93-0.56-0.76-1.31-1.12-2.23-1.12zm-10.32-2.64-0.34 3.54c-0.47-0.26-0.94-0.45-1.4-0.58-0.47-0.12-0.93-0.19-1.39-0.19-1.19 0-2.14 0.35-2.85 1.06-0.7 0.71-1.06 1.66-1.06 2.87 0 1.18 0.37 2.12 1.12 2.83 0.75 0.7 1.76 1.06 3.01 1.06 0.53 0 1.03-0.07 1.52-0.2 0.48-0.13 0.96-0.34 1.41-0.62l0.11 3.71c-0.62 0.21-1.3 0.38-2.04 0.48-0.75 0.11-1.55 0.17-2.43 0.17-2.29 0-4.14-0.68-5.57-2.05-1.42-1.37-2.13-3.15-2.13-5.36 0-2.31 0.72-4.13 2.16-5.46 1.43-1.33 3.41-2 5.93-2 0.61 0 1.24 0.06 1.9 0.18 0.65 0.12 1.34 0.31 2.05 0.56zm-19.57 9.37h4.47v4.37h-4.47zm-16.51-16.2h4.84v12.23l3.78-5.76h5.3l-4.75 6.15 5.21 7.95h-5.73l-3.8-7.35v7.35h-4.84v-20.57zm-3.04 6.83-0.34 3.54c-0.47-0.26-0.94-0.45-1.4-0.58-0.47-0.12-0.93-0.19-1.39-0.19-1.19 0-2.14 0.35-2.85 1.06-0.7 0.71-1.06 1.66-1.06 2.87 0 1.18 0.37 2.12 1.12 2.83 0.75 0.7 1.76 1.06 3.01 1.06 0.53 0 1.03-0.07 1.52-0.2 0.48-0.13 0.96-0.34 1.41-0.62l0.11 3.71c-0.62 0.21-1.3 0.38-2.04 0.48-0.75 0.11-1.55 0.17-2.43 0.17-2.29 0-4.14-0.68-5.57-2.05-1.42-1.37-2.13-3.15-2.13-5.36 0-2.31 0.72-4.13 2.16-5.46 1.43-1.33 3.41-2 5.93-2 0.61 0 1.24 0.06 1.9 0.18s1.34 0.31 2.05 0.56zm-14.67 6.36v7.38h-4.19l-0.11-2.19c-0.57 0.81-1.26 1.41-2.07 1.79s-1.78 0.57-2.93 0.57c-1.43 0-2.57-0.41-3.42-1.22s-1.27-1.9-1.27-3.25c0-1.56 0.62-2.72 1.85-3.47s3.13-1.13 5.7-1.13h1.89v-0.19c0-0.77-0.29-1.36-0.88-1.77s-1.45-0.62-2.57-0.62c-0.55 0-1.18 0.1-1.89 0.29-0.71 0.2-1.47 0.48-2.28 0.86l-0.08-3.19c0.79-0.33 1.64-0.58 2.55-0.74s1.92-0.24 3.02-0.24c2.3 0 3.99 0.58 5.07 1.72 1.07 1.15 1.61 2.95 1.61 5.4zm-5.37 0.97c-1.42 0-2.44 0.16-3.07 0.46-0.63 0.31-0.94 0.8-0.94 1.48 0 0.49 0.17 0.89 0.5 1.19 0.33 0.31 0.78 0.46 1.33 0.46 0.88 0 1.6-0.29 2.15-0.88 0.56-0.59 0.84-1.36 0.84-2.3v-0.4h-0.81zm-18.69-4.45c-0.94 0-1.67 0.34-2.21 1.02-0.53 0.68-0.8 1.61-0.8 2.8 0 1.15 0.27 2.06 0.79 2.74 0.53 0.67 1.24 1.01 2.14 1.01 0.91 0 1.64-0.35 2.18-1.04 0.54-0.7 0.81-1.65 0.81-2.85 0-1.11-0.27-2-0.8-2.66-0.53-0.69-1.24-1.02-2.11-1.02zm-3.01 8.89v7.7h-4.84v-19.83h4.34v2.69c0.55-0.99 1.26-1.75 2.13-2.28s1.85-0.79 2.94-0.79c1.9 0 3.43 0.67 4.59 2.01s1.74 3.12 1.74 5.34c0 2.23-0.58 4.03-1.76 5.43-1.17 1.39-2.68 2.09-4.52 2.09-0.98 0-1.86-0.2-2.63-0.59-0.76-0.39-1.43-0.98-1.99-1.77zm-13.37-18.6h4.84v20.57h-4.84zm-11.01 6.09c2.54 0 4.53 0.66 5.97 1.97 1.43 1.31 2.15 3.13 2.15 5.46 0 2.31-0.72 4.12-2.15 5.44-1.44 1.31-3.42 1.97-5.97 1.97-2.54 0-4.52-0.66-5.95-1.97s-2.14-3.12-2.14-5.44c0-2.33 0.71-4.15 2.14-5.46 1.42-1.31 3.41-1.97 5.95-1.97zm0 3.38c-0.91 0-1.65 0.37-2.22 1.11s-0.85 1.71-0.85 2.93c0 1.2 0.28 2.16 0.85 2.9s1.31 1.11 2.22 1.11c0.93 0 1.67-0.37 2.23-1.09 0.56-0.73 0.84-1.7 0.84-2.91 0-1.23-0.28-2.2-0.84-2.93-0.56-0.76-1.31-1.12-2.23-1.12zm-9.17-3.22-0.26 4.17c-0.2-0.08-0.42-0.14-0.65-0.18-0.24-0.04-0.53-0.06-0.85-0.06-1.15 0-2.02 0.37-2.61 1.11-0.58 0.74-0.88 1.83-0.88 3.27v6.01h-4.84v-14.1h4.32v2.69c0.49-1.04 1.09-1.81 1.79-2.32 0.71-0.5 1.54-0.75 2.51-0.75 0.25 0 0.7 0.05 1.36 0.15 0.06 0.01 0.1 0.01 0.11 0.01zm-16.18-4.58v4.79h3.45v3.48h-3.45v4.86c0 1.05 0.17 1.78 0.51 2.21s0.92 0.64 1.74 0.64c0.11 0 0.26-0.01 0.44-0.05 0.18-0.03 0.43-0.09 0.76-0.17l0.08 3.15c-0.52 0.11-1.02 0.21-1.51 0.27-0.48 0.06-0.96 0.1-1.43 0.1-1.91 0-3.29-0.47-4.14-1.41s-1.28-2.48-1.28-4.6v-4.99h-2.72v-3.48h2.99v-3.25zm-9.57 10.65v8.25h-4.8v-7.25c0-1.11-0.2-1.93-0.59-2.47s-0.99-0.81-1.79-0.81c-0.84 0-1.51 0.34-2.02 1.02-0.5 0.68-0.75 1.59-0.75 2.73v6.78h-4.84v-14.1h4.39v2.53c0.55-0.95 1.27-1.67 2.14-2.16 0.87-0.5 1.86-0.74 2.96-0.74 1.72 0 3.04 0.53 3.94 1.59 0.9 1.05 1.36 2.59 1.36 4.63zm-25.77-6.23c2.54 0 4.53 0.66 5.97 1.97 1.43 1.31 2.15 3.13 2.15 5.46 0 2.31-0.72 4.12-2.15 5.44-1.44 1.31-3.42 1.97-5.97 1.97-2.54 0-4.52-0.66-5.95-1.97s-2.14-3.12-2.14-5.44c0-2.33 0.71-4.15 2.14-5.46 1.42-1.31 3.41-1.97 5.95-1.97zm0 3.38c-0.91 0-1.65 0.37-2.22 1.11s-0.85 1.71-0.85 2.93c0 1.2 0.28 2.16 0.85 2.9s1.31 1.11 2.22 1.11c0.93 0 1.67-0.37 2.23-1.09 0.56-0.73 0.84-1.7 0.84-2.91 0-1.23-0.28-2.2-0.84-2.93-0.56-0.76-1.31-1.12-2.23-1.12zm-10.32-2.64-0.34 3.54c-0.47-0.26-0.94-0.45-1.4-0.58-0.47-0.12-0.93-0.19-1.39-0.19-1.19 0-2.14 0.35-2.85 1.06-0.7 0.71-1.06 1.66-1.06 2.87 0 1.18 0.37 2.12 1.12 2.83 0.75 0.7 1.76 1.06 3.01 1.06 0.53 0 1.03-0.07 1.52-0.2 0.48-0.13 0.96-0.34 1.41-0.62l0.11 3.71c-0.62 0.21-1.3 0.38-2.04 0.48-0.75 0.11-1.55 0.17-2.43 0.17-2.29 0-4.14-0.68-5.57-2.05-1.42-1.37-2.13-3.15-2.13-5.36 0-2.31 0.72-4.13 2.16-5.46s3.41-2 5.93-2c0.61 0 1.24 0.06 1.9 0.18 0.65 0.12 1.34 0.31 2.05 0.56zm-19.56 9.37h4.47v4.37h-4.47zm-25.25-9.73h5.1l1.94 8.86c0.06 0.29 0.11 0.59 0.16 0.92 0.05 0.32 0.08 0.69 0.11 1.08 0.05-0.45 0.11-0.85 0.16-1.19 0.05-0.35 0.1-0.62 0.15-0.81l2.19-8.86h5.76l2.12 9.05c0.06 0.3 0.12 0.59 0.16 0.9 0.05 0.3 0.09 0.61 0.1 0.91 0.05-0.63 0.1-1.06 0.12-1.29 0.03-0.23 0.05-0.39 0.06-0.48l2.04-9.09h4.69l-4.3 14.1h-5.52l-2.3-9.38c-0.05-0.22-0.1-0.48-0.13-0.79-0.03-0.3-0.05-0.66-0.06-1.07-0.06 0.52-0.11 0.93-0.16 1.24-0.04 0.31-0.07 0.52-0.1 0.62l-2.41 9.38h-5.57zm-25.42 0h5.1l1.94 8.86c0.06 0.29 0.11 0.59 0.16 0.92 0.05 0.32 0.08 0.69 0.11 1.08 0.05-0.45 0.11-0.85 0.16-1.19 0.05-0.35 0.1-0.62 0.15-0.81l2.19-8.86h5.76l2.12 9.05c0.06 0.3 0.12 0.59 0.16 0.9 0.05 0.3 0.09 0.61 0.1 0.91 0.05-0.63 0.1-1.06 0.12-1.29 0.03-0.23 0.05-0.39 0.06-0.48l2.04-9.09h4.69l-4.3 14.1h-5.52l-2.3-9.38c-0.05-0.22-0.1-0.48-0.13-0.79-0.03-0.3-0.05-0.66-0.06-1.07-0.06 0.52-0.11 0.93-0.16 1.24-0.04 0.31-0.07 0.52-0.1 0.62l-2.41 9.38h-5.57zm-25.42 0h5.1l1.94 8.86c0.06 0.29 0.11 0.59 0.16 0.92 0.05 0.32 0.08 0.69 0.11 1.08 0.05-0.45 0.11-0.85 0.16-1.19 0.05-0.35 0.1-0.62 0.15-0.81l2.19-8.86h5.76l2.12 9.05c0.06 0.3 0.12 0.59 0.16 0.9 0.05 0.3 0.09 0.61 0.1 0.91 0.05-0.63 0.1-1.06 0.12-1.29 0.03-0.23 0.05-0.39 0.06-0.48l2.04-9.09h4.69l-4.3 14.1h-5.52l-2.3-9.38c-0.05-0.22-0.1-0.48-0.13-0.79-0.03-0.3-0.05-0.66-0.06-1.07-0.06 0.52-0.11 0.93-0.16 1.24-0.04 0.31-0.07 0.52-0.1 0.62l-2.41 9.38h-5.57z"/>
</svg>
