<?xml version="1.0" encoding="UTF-8"?>
<svg version="1.1" viewBox="0 0 399.3 38.43" xml:space="preserve" xmlns="http://www.w3.org/2000/svg" xmlns:cc="http://creativecommons.org/ns#" xmlns:dc="http://purl.org/dc/elements/1.1/" xmlns:rdf="http://www.w3.org/1999/02/22-rdf-syntax-ns#"><metadata><rdf:RDF><cc:Work rdf:about=""><dc:format>image/svg+xml</dc:format><dc:type rdf:resource="http://purl.org/dc/dcmitype/StillImage"/><dc:title/></cc:Work></rdf:RDF></metadata>
<style type="text/css">
	.st0{fill-rule:evenodd;clip-rule:evenodd;fill:#9EA3B0;}
	.st1{fill-rule:evenodd;clip-rule:evenodd;fill:#165C32;}
	.st2{fill:none;stroke:#165C32;stroke-width:0.5;stroke-miterlimit:22.9256;}
	.st3{fill-rule:evenodd;clip-rule:evenodd;fill:#218E4D;}
	.st4{fill-rule:evenodd;clip-rule:evenodd;fill:#171716;}
	.st5{fill:#9EA3B0;}
</style>
<path class="st0" d="m228.01 37.69v-36.3h5.13v31.63h17.27v4.67zm-44.68-18.3c0-2.42 0.5-4.77 1.48-7.05s2.39-4.3 4.21-6.05c1.85-1.78 3.94-3.13 6.28-4.07 2.33-0.93 4.79-1.4 7.37-1.4 2.62 0 5.12 0.47 7.48 1.42 2.36 0.94 4.44 2.29 6.23 4.05 1.89 1.83 3.3 3.88 4.26 6.12 0.95 2.25 1.43 4.69 1.43 7.32 0 2.47-0.49 4.84-1.47 7.12-0.97 2.28-2.36 4.28-4.16 6-1.89 1.8-3.98 3.16-6.31 4.08-2.33 0.93-4.82 1.39-7.45 1.39-2.58 0-5.05-0.48-7.41-1.43-2.36-0.96-4.44-2.3-6.23-4.05-1.87-1.82-3.29-3.87-4.24-6.14-0.99-2.27-1.47-4.71-1.47-7.31zm5.52 0.19c0 1.85 0.35 3.61 1.04 5.29s1.69 3.17 2.98 4.46c1.27 1.3 2.74 2.29 4.45 2.99 1.7 0.7 3.48 1.05 5.33 1.05 1.9 0 3.68-0.35 5.36-1.03 1.67-0.68 3.16-1.69 4.47-3.02 1.29-1.29 2.29-2.78 2.99-4.46 0.7-1.67 1.05-3.44 1.05-5.29s-0.34-3.6-1.04-5.25c-0.69-1.66-1.72-3.16-3.06-4.52-1.29-1.34-2.78-2.35-4.46-3.05-1.67-0.7-3.44-1.05-5.31-1.05-1.81 0-3.54 0.35-5.23 1.06-1.68 0.71-3.2 1.72-4.55 3.04-1.29 1.26-2.29 2.74-2.98 4.44-0.69 1.69-1.04 3.47-1.04 5.34zm-28.42-2.46h4.3c2.42 0 4.23-0.47 5.44-1.4 1.2-0.94 1.8-2.36 1.8-4.29 0-1.97-0.57-3.4-1.71-4.29s-2.98-1.34-5.52-1.34h-4.3v11.32zm-5.22 20.57v-36.3h10.63c3.67 0 6.49 0.87 8.48 2.59 1.99 1.73 2.98 4.18 2.98 7.34 0 2.39-0.55 4.31-1.64 5.76s-2.81 2.54-5.16 3.27c0.6 0.33 1.18 0.76 1.71 1.31 0.54 0.55 1.23 1.46 2.08 2.74l8.82 13.28h-6.28l-6.22-9.52c-1.87-2.87-3.37-4.7-4.52-5.5s-2.52-1.2-4.11-1.2h-1.56v16.21h-5.21zm-22.68 0v-31.58h-13.33v-4.72h31.83v4.72h-13.33v31.57h-5.17zm-51.14 0v-36.3h4.52l23.89 28.17v-28.17h5.16v36.29h-4.61l-23.82-28.2v28.2h-5.14zm-44.52-18.3c0-2.42 0.5-4.77 1.48-7.05s2.39-4.3 4.21-6.05c1.85-1.78 3.94-3.13 6.28-4.07 2.33-0.93 4.79-1.4 7.37-1.4 2.62 0 5.12 0.47 7.48 1.42 2.36 0.94 4.44 2.29 6.23 4.05 1.89 1.83 3.3 3.88 4.26 6.12 0.95 2.25 1.43 4.69 1.43 7.32 0 2.47-0.49 4.84-1.47 7.12-0.97 2.28-2.36 4.28-4.16 6-1.89 1.8-3.98 3.16-6.31 4.08-2.33 0.93-4.82 1.39-7.45 1.39-2.58 0-5.05-0.48-7.41-1.43-2.35-0.96-4.44-2.3-6.23-4.05-1.87-1.82-3.28-3.87-4.24-6.14-0.99-2.27-1.47-4.71-1.47-7.31zm5.53 0.19c0 1.85 0.34 3.61 1.04 5.29 0.69 1.68 1.69 3.17 2.98 4.46 1.27 1.3 2.74 2.29 4.45 2.99 1.7 0.7 3.48 1.05 5.33 1.05 1.89 0 3.68-0.35 5.36-1.03 1.66-0.68 3.16-1.69 4.47-3.02 1.29-1.29 2.29-2.78 2.99-4.46 0.7-1.67 1.05-3.44 1.05-5.29s-0.35-3.6-1.04-5.25c-0.69-1.66-1.72-3.16-3.06-4.52-1.29-1.34-2.78-2.35-4.46-3.05-1.67-0.7-3.44-1.05-5.31-1.05-1.81 0-3.54 0.35-5.23 1.06-1.68 0.71-3.2 1.72-4.55 3.04-1.29 1.26-2.29 2.74-2.98 4.44-0.7 1.69-1.04 3.47-1.04 5.34zm-9.53 9.49v5.86c-2.12 1.11-4.29 1.95-6.5 2.53-2.2 0.57-4.39 0.87-6.55 0.87-2.07 0-4.06-0.27-5.94-0.81-1.88-0.55-3.67-1.35-5.34-2.43-2.7-1.76-4.8-4.02-6.3-6.76-1.5-2.75-2.24-5.72-2.24-8.94 0-2.44 0.5-4.8 1.48-7.09 0.98-2.28 2.39-4.29 4.21-6 1.93-1.83 4.11-3.2 6.51-4.11 2.41-0.91 5.06-1.36 7.99-1.36 2.05 0 4.06 0.23 6.07 0.7s4.11 1.2 6.3 2.2v5.63c-2.3-1.25-4.46-2.17-6.48-2.76-2.03-0.59-3.99-0.89-5.9-0.89-4.23 0-7.74 1.32-10.5 3.96-2.77 2.63-4.15 5.94-4.15 9.92 0 3.92 1.36 7.21 4.08 9.84 2.73 2.64 6.14 3.96 10.26 3.96 2.11 0 4.25-0.35 6.41-1.06 2.16-0.73 4.36-1.81 6.59-3.26z"/>
<path class="st1" d="m356.99 0.83h7.26v16.08l13.56-16.08h8.33l-15.2 17.1 16.63 19.76h-9.18l-14.14-17.64v17.64h-7.26zm-5.91 1.17-0.47 5.83c-0.14-0.05-0.32-0.12-0.55-0.2-3.42-1.28-6.09-1.92-8.01-1.92-4.05 0-7.28 1.26-9.7 3.76-2.42 2.51-3.63 5.84-3.63 10 0 3.95 1.25 7.14 3.74 9.6 2.51 2.45 5.8 3.68 9.9 3.68 1.37 0 3.43-0.48 6.18-1.43 0.97-0.33 1.69-0.56 2.18-0.7l0.62 5.83c-0.45 0.12-1.12 0.3-2 0.55-3.34 0.95-5.87 1.43-7.6 1.43-6.35 0-11.36-1.7-15.02-5.11-3.67-3.41-5.5-8.02-5.5-13.86 0-5.83 1.84-10.53 5.52-14.1 3.67-3.57 8.54-5.36 14.62-5.36 1.89 0 4.44 0.47 7.65 1.4 0.95 0.29 1.64 0.47 2.07 0.6zm-54.44-1.17h8.77l14.25 36.86h-7.84l-3.06-8.72h-16.05l-3.2 8.72h-7.21zm4.26 6.14-6.18 16.57h12.12zm-41.18-6.14h10.94c4.77 0 8.31 0.94 10.61 2.82s3.45 4.75 3.45 8.65c0 3.59-1.2 6.39-3.6 8.38-2.41 1.99-5.81 2.98-10.2 2.98h-3.94v14.03h-7.26zm7.26 5.19v12.45h2.98c2.36 0 4.19-0.53 5.44-1.59 1.27-1.06 1.89-2.59 1.89-4.58 0-2.01-0.6-3.55-1.81-4.64-1.2-1.09-2.9-1.64-5.12-1.64z"/>

<path class="st2" d="m394.8 5.41c0-0.44-0.14-0.76-0.43-0.94-0.2-0.12-0.46-0.18-0.78-0.18h-2.26v2.28h2.1c0.41 0 0.72-0.07 0.94-0.21 0.28-0.18 0.43-0.5 0.43-0.95zm1.19 4.82h-1.11c-0.04-0.13-0.07-0.25-0.09-0.37s-0.03-0.25-0.03-0.42l-0.04-0.9c0-0.35-0.06-0.62-0.19-0.8-0.19-0.26-0.52-0.39-1.01-0.39h-2.2v2.88h-0.91v-6.72h3.11c0.64 0 1.14 0.12 1.51 0.37 0.46 0.3 0.69 0.78 0.69 1.44 0 0.44-0.1 0.8-0.3 1.08-0.14 0.19-0.35 0.37-0.64 0.53 0.26 0.1 0.44 0.21 0.54 0.34 0.17 0.21 0.26 0.51 0.26 0.93l0.06 1.22c0 0.19 0.02 0.32 0.06 0.41s0.13 0.17 0.28 0.26v0.14z" fill="#165c32" stroke-miterlimit="22.926" stroke-width=".1"/>

<path class="st2" d="m392.99 1.34c3.04 0 5.52 2.48 5.52 5.52s-2.48 5.52-5.52 5.52-5.52-2.48-5.52-5.52c-0.01-3.03 2.47-5.51 5.52-5.52zm0-0.51c3.33 0 6.04 2.71 6.04 6.04s-2.71 6.04-6.04 6.04-6.04-2.71-6.04-6.04c-0.01-3.33 2.71-6.04 6.04-6.04z" fill="none" stroke-miterlimit="22.926" stroke-width=".53"/>



</svg>
